
<global>
ampeg_decay=0.1
ampeg_hold=0.28
ampeg_release=0.1
ampeg_sustain=0
cutoff=1200
</global>

<group>
group_label=RR1
seq_length=4
seq_position=1

<region>
hivel=127
key=A#3
lovel=0
offset=579
sample=Precisionbass_staccato_MP_A#3_RR1.opus
</region>

<region>
hivel=127
key=A3
lovel=0
offset=514
sample=Precisionbass_staccato_MP_A3_RR1.opus
</region>

<region>
hivel=127
key=B3
lovel=0
offset=1217
sample=Precisionbass_staccato_MP_B3_RR1.opus
</region>

<region>
hivel=127
key=C#4
lovel=0
offset=3506
sample=Precisionbass_staccato_MP_C#4_RR1.opus
</region>

<region>
hikey=C4
hivel=127
lokey=C4
lovel=0
offset=66
sample=Precisionbass_staccato_MP_C4_RR1.opus
</region>

<region>
hivel=127
key=D#4
lovel=0
offset=9114
sample=Precisionbass_staccato_MP_D#4_RR1.opus
</region>

<region>
hivel=127
key=D4
lovel=0
offset=4208
sample=Precisionbass_staccato_MP_D4_RR1.opus
</region>

<region>
hivel=127
key=G#3
lovel=0
offset=1969
sample=Precisionbass_staccato_MP_G#3_RR1.opus
</region>

<region>
hivel=127
key=C#3
lovel=0
offset=2908
sample=Precisionbass_staccato_MP_C#3_RR1.opus
</region>

<region>
hivel=127
key=D#3
lovel=0
offset=7822
sample=Precisionbass_staccato_MP_D#3_RR1.opus
</region>

<region>
hivel=127
key=D3
lovel=0
offset=7035
sample=Precisionbass_staccato_MP_D3_RR1.opus
</region>

<region>
hivel=127
key=E3
lovel=0
offset=6516
sample=Precisionbass_staccato_MP_E3_RR1.opus
</region>

<region>
hivel=127
key=F#3
lovel=0
offset=2448
sample=Precisionbass_staccato_MP_F#3_RR1.opus
</region>

<region>
hivel=127
key=F3
lovel=0
offset=2622
sample=Precisionbass_staccato_MP_F3_RR1.opus
</region>

<region>
hivel=127
key=G3
lovel=0
offset=2276
sample=Precisionbass_staccato_MP_G3_RR1.opus
</region>

<region>
hivel=127
key=A#1
lovel=0
offset=517
sample=Precisionbass_staccato_MP_A#1_RR1.opus
</region>

<region>
hivel=127
key=A#2
lovel=0
offset=2292
sample=Precisionbass_staccato_MP_A#2_RR1.opus
</region>

<region>
hivel=127
key=A2
lovel=0
offset=2978
sample=Precisionbass_staccato_MP_A2_RR1.opus
</region>

<region>
hivel=127
key=B1
lovel=0
offset=881
sample=Precisionbass_staccato_MP_B1_RR1.opus
</region>

<region>
hivel=127
key=B2
lovel=0
offset=774
sample=Precisionbass_staccato_MP_B2_RR1.opus
</region>

<region>
hivel=127
key=C#2
lovel=0
offset=2170
sample=Precisionbass_staccato_MP_C#2_RR1.opus
</region>

<region>
hivel=127
key=C2
lovel=0
offset=1491
sample=Precisionbass_staccato_MP_C2_RR1.opus
</region>

<region>
hivel=127
key=C3
lovel=0
offset=9674
sample=Precisionbass_staccato_MP_C3_RR1.opus
</region>

<region>
hivel=127
key=D#2
lovel=0
offset=6961
sample=Precisionbass_staccato_MP_D#2_RR1.opus
</region>

<region>
hivel=127
key=D2
lovel=0
offset=716
sample=Precisionbass_staccato_MP_D2_RR1.opus
</region>

<region>
hivel=127
key=E2
lovel=0
offset=8448
sample=Precisionbass_staccato_MP_E2_RR1.opus
</region>

<region>
hivel=127
key=F#2
lovel=0
offset=2842
sample=Precisionbass_staccato_MP_F#2_RR1.opus
</region>

<region>
hivel=127
key=F2
lovel=0
offset=889
sample=Precisionbass_staccato_MP_F2_RR1.opus
</region>

<region>
hivel=127
key=G#2
lovel=0
offset=8013
sample=Precisionbass_staccato_MP_G#2_RR1.opus
</region>

<region>
hivel=127
key=G2
lovel=0
offset=1732
sample=Precisionbass_staccato_MP_G2_RR1.opus
</region>

<region>
hivel=127
key=A1
lovel=0
offset=549
sample=Precisionbass_staccato_MP_A1_RR1.opus
</region>

<region>
hikey=E1
hivel=127
lokey=D1
lovel=0
offset=760
pitch_keycenter=E1
sample=Precisionbass_staccato_MP_E1_RR1.opus
</region>

<region>
hivel=127
key=F#1
lovel=0
offset=2309
sample=Precisionbass_staccato_MP_F#1_RR1.opus
</region>

<region>
hivel=127
key=F1
lovel=0
offset=1840
sample=Precisionbass_staccato_MP_F1_RR1.opus
</region>

<region>
hivel=127
key=G#1
lovel=0
offset=300
sample=Precisionbass_staccato_MP_G#1_RR1.opus
</region>

<region>
hivel=127
key=G1
lovel=0
offset=4
sample=Precisionbass_staccato_MP_G1_RR1.opus
</region>
</group>

<group>
group_label=RR2
seq_length=4
seq_position=2

<region>
hivel=127
key=A#3
lovel=0
offset=133
sample=Precisionbass_staccato_MP_A#3_RR2.opus
</region>

<region>
hivel=127
key=A3
lovel=0
offset=144
sample=Precisionbass_staccato_MP_A3_RR2.opus
</region>

<region>
hivel=127
key=B3
lovel=0
offset=1575
sample=Precisionbass_staccato_MP_B3_RR2.opus
</region>

<region>
hivel=127
key=C#4
lovel=0
offset=452
sample=Precisionbass_staccato_MP_C#4_RR2.opus
</region>

<region>
hikey=C4
hivel=127
lokey=C4
lovel=0
offset=258
sample=Precisionbass_staccato_MP_C4_RR2.opus
</region>

<region>
hivel=127
key=D#4
lovel=0
offset=8860
sample=Precisionbass_staccato_MP_D#4_RR2.opus
</region>

<region>
hivel=127
key=D4
lovel=0
offset=2964
sample=Precisionbass_staccato_MP_D4_RR2.opus
</region>

<region>
hivel=127
key=G#3
lovel=0
offset=2471
sample=Precisionbass_staccato_MP_G#3_RR2.opus
</region>

<region>
hivel=127
key=C#3
lovel=0
offset=9395
sample=Precisionbass_staccato_MP_C#3_RR2.opus
</region>

<region>
hivel=127
key=D#3
lovel=0
offset=11
sample=Precisionbass_staccato_MP_D#3_RR2.opus
</region>

<region>
hivel=127
key=D3
lovel=0
offset=2282
sample=Precisionbass_staccato_MP_D3_RR2.opus
</region>

<region>
hivel=127
key=E3
lovel=0
offset=3736
sample=Precisionbass_staccato_MP_E3_RR2.opus
</region>

<region>
hivel=127
key=F#3
lovel=0
offset=1775
sample=Precisionbass_staccato_MP_F#3_RR2.opus
</region>

<region>
hivel=127
key=F3
lovel=0
offset=5439
sample=Precisionbass_staccato_MP_F3_RR2.opus
</region>

<region>
hivel=127
key=G3
lovel=0
offset=452
sample=Precisionbass_staccato_MP_G3_RR2.opus
</region>

<region>
hivel=127
key=A#1
lovel=0
offset=8682
sample=Precisionbass_staccato_MP_A#1_RR2.opus
</region>

<region>
hivel=127
key=A#2
lovel=0
offset=1578
sample=Precisionbass_staccato_MP_A#2_RR2.opus
</region>

<region>
hivel=127
key=A2
lovel=0
offset=7086
sample=Precisionbass_staccato_MP_A2_RR2.opus
</region>

<region>
hivel=127
key=B1
lovel=0
offset=2828
sample=Precisionbass_staccato_MP_B1_RR2.opus
</region>

<region>
hivel=127
key=B2
lovel=0
offset=6069
sample=Precisionbass_staccato_MP_B2_RR2.opus
</region>

<region>
hivel=127
key=C#2
lovel=0
offset=2099
sample=Precisionbass_staccato_MP_C#2_RR2.opus
</region>

<region>
hivel=127
key=C2
lovel=0
offset=1497
sample=Precisionbass_staccato_MP_C2_RR2.opus
</region>

<region>
hivel=127
key=C3
lovel=0
offset=7651
sample=Precisionbass_staccato_MP_C3_RR2.opus
</region>

<region>
hivel=127
key=D#2
lovel=0
offset=7470
sample=Precisionbass_staccato_MP_D#2_RR2.opus
</region>

<region>
hivel=127
key=D2
lovel=0
offset=5073
sample=Precisionbass_staccato_MP_D2_RR2.opus
</region>

<region>
hivel=127
key=E2
lovel=0
offset=284
sample=Precisionbass_staccato_MP_E2_RR2.opus
</region>

<region>
hivel=127
key=F#2
lovel=0
offset=7340
sample=Precisionbass_staccato_MP_F#2_RR2.opus
</region>

<region>
hivel=127
key=F2
lovel=0
offset=7464
sample=Precisionbass_staccato_MP_F2_RR2.opus
</region>

<region>
hivel=127
key=G#2
lovel=0
offset=8193
sample=Precisionbass_staccato_MP_G#2_RR2.opus
</region>

<region>
hivel=127
key=G2
lovel=0
offset=916
sample=Precisionbass_staccato_MP_G2_RR2.opus
</region>

<region>
hivel=127
key=A1
lovel=0
sample=Precisionbass_staccato_MP_A1_RR2.opus
</region>

<region>
hikey=E1
hivel=127
lokey=D1
lovel=0
offset=8697
pitch_keycenter=E1
sample=Precisionbass_staccato_MP_E1_RR2.opus
</region>

<region>
hivel=127
key=F#1
lovel=0
offset=2067
sample=Precisionbass_staccato_MP_F#1_RR2.opus
</region>

<region>
hivel=127
key=F1
lovel=0
offset=1533
sample=Precisionbass_staccato_MP_F1_RR2.opus
</region>

<region>
hivel=127
key=G#1
lovel=0
offset=3875
sample=Precisionbass_staccato_MP_G#1_RR2.opus
</region>

<region>
hivel=127
key=G1
lovel=0
offset=2442
sample=Precisionbass_staccato_MP_G1_RR2.opus
</region>
</group>

<group>
group_label=RR3
seq_length=4
seq_position=3

<region>
hivel=127
key=A#3
lovel=0
sample=Precisionbass_staccato_MP_A#3_RR3.opus
</region>

<region>
hivel=127
key=A3
lovel=0
offset=184
sample=Precisionbass_staccato_MP_A3_RR3.opus
</region>

<region>
hivel=127
key=B3
lovel=0
offset=3704
sample=Precisionbass_staccato_MP_B3_RR3.opus
</region>

<region>
hivel=127
key=C#4
lovel=0
offset=1493
sample=Precisionbass_staccato_MP_C#4_RR3.opus
</region>

<region>
hikey=C4
hivel=127
lokey=C4
lovel=0
offset=102
sample=Precisionbass_staccato_MP_C4_RR3.opus
</region>

<region>
hivel=127
key=D#4
lovel=0
offset=7634
sample=Precisionbass_staccato_MP_D#4_RR3.opus
</region>

<region>
hivel=127
key=D4
lovel=0
offset=2586
sample=Precisionbass_staccato_MP_D4_RR3.opus
</region>

<region>
hivel=127
key=G#3
lovel=0
offset=2101
sample=Precisionbass_staccato_MP_G#3_RR3.opus
</region>

<region>
hivel=127
key=C#3
lovel=0
offset=2872
sample=Precisionbass_staccato_MP_C#3_RR3.opus
</region>

<region>
hivel=127
key=D#3
lovel=0
offset=274
sample=Precisionbass_staccato_MP_D#3_RR3.opus
</region>

<region>
hivel=127
key=D3
lovel=0
offset=8374
sample=Precisionbass_staccato_MP_D3_RR3.opus
</region>

<region>
hivel=127
key=E3
lovel=0
offset=3138
sample=Precisionbass_staccato_MP_E3_RR3.opus
</region>

<region>
hivel=127
key=F#3
lovel=0
offset=7305
sample=Precisionbass_staccato_MP_F#3_RR3.opus
</region>

<region>
hivel=127
key=F3
lovel=0
sample=Precisionbass_staccato_MP_F3_RR3.opus
</region>

<region>
hivel=127
key=G3
lovel=0
offset=8633
sample=Precisionbass_staccato_MP_G3_RR3.opus
</region>

<region>
hivel=127
key=A#1
lovel=0
offset=7371
sample=Precisionbass_staccato_MP_A#1_RR3.opus
</region>

<region>
hivel=127
key=A#2
lovel=0
offset=7362
sample=Precisionbass_staccato_MP_A#2_RR3.opus
</region>

<region>
hivel=127
key=A2
lovel=0
offset=7802
sample=Precisionbass_staccato_MP_A2_RR3.opus
</region>

<region>
hivel=127
key=B1
lovel=0
offset=1805
sample=Precisionbass_staccato_MP_B1_RR3.opus
</region>

<region>
hivel=127
key=B2
lovel=0
offset=6866
sample=Precisionbass_staccato_MP_B2_RR3.opus
</region>

<region>
hivel=127
key=C#2
lovel=0
offset=912
sample=Precisionbass_staccato_MP_C#2_RR3.opus
</region>

<region>
hivel=127
key=C2
lovel=0
offset=1016
sample=Precisionbass_staccato_MP_C2_RR3.opus
</region>

<region>
hivel=127
key=C3
lovel=0
offset=7933
sample=Precisionbass_staccato_MP_C3_RR3.opus
</region>

<region>
hivel=127
key=D#2
lovel=0
offset=919
sample=Precisionbass_staccato_MP_D#2_RR3.opus
</region>

<region>
hivel=127
key=D2
lovel=0
offset=5304
sample=Precisionbass_staccato_MP_D2_RR3.opus
</region>

<region>
hivel=127
key=E2
lovel=0
offset=6715
sample=Precisionbass_staccato_MP_E2_RR3.opus
</region>

<region>
hivel=127
key=F#2
lovel=0
offset=6066
sample=Precisionbass_staccato_MP_F#2_RR3.opus
</region>

<region>
hivel=127
key=F2
lovel=0
offset=1337
sample=Precisionbass_staccato_MP_F2_RR3.opus
</region>

<region>
hivel=127
key=G#2
lovel=0
offset=5929
sample=Precisionbass_staccato_MP_G#2_RR3.opus
</region>

<region>
hivel=127
key=G2
lovel=0
offset=498
sample=Precisionbass_staccato_MP_G2_RR3.opus
</region>

<region>
hivel=127
key=A1
lovel=0
sample=Precisionbass_staccato_MP_A1_RR3.opus
</region>

<region>
hikey=E1
hivel=127
lokey=D1
lovel=0
offset=6307
pitch_keycenter=E1
sample=Precisionbass_staccato_MP_E1_RR3.opus
</region>

<region>
hivel=127
key=F#1
lovel=0
offset=3139
sample=Precisionbass_staccato_MP_F#1_RR3.opus
</region>

<region>
hivel=127
key=F1
lovel=0
offset=5784
sample=Precisionbass_staccato_MP_F1_RR3.opus
</region>

<region>
hivel=127
key=G#1
lovel=0
offset=2525
sample=Precisionbass_staccato_MP_G#1_RR3.opus
</region>

<region>
hivel=127
key=G1
lovel=0
offset=2147
sample=Precisionbass_staccato_MP_G1_RR3.opus
</region>
</group>

<group>
group_label=RR4
seq_length=4
seq_position=4

<region>
hivel=127
key=A#3
lovel=0
sample=Precisionbass_staccato_MP_A#3_RR4.opus
</region>

<region>
hivel=127
key=A3
lovel=0
offset=426
sample=Precisionbass_staccato_MP_A3_RR4.opus
</region>

<region>
hivel=127
key=B3
lovel=0
sample=Precisionbass_staccato_MP_B3_RR4.opus
</region>

<region>
hivel=127
key=C#4
lovel=0
sample=Precisionbass_staccato_MP_C#4_RR4.opus
</region>

<region>
hikey=C4
hivel=127
lokey=C4
lovel=0
offset=7738
sample=Precisionbass_staccato_MP_C4_RR4.opus
</region>

<region>
hivel=127
key=D#4
lovel=0
offset=3372
sample=Precisionbass_staccato_MP_D#4_RR4.opus
</region>

<region>
hivel=127
key=D4
lovel=0
offset=2255
sample=Precisionbass_staccato_MP_D4_RR4.opus
</region>

<region>
hivel=127
key=G#3
lovel=0
offset=2843
sample=Precisionbass_staccato_MP_G#3_RR4.opus
</region>

<region>
hivel=127
key=C#3
lovel=0
offset=9052
sample=Precisionbass_staccato_MP_C#3_RR4.opus
</region>

<region>
hivel=127
key=D#3
lovel=0
offset=373
sample=Precisionbass_staccato_MP_D#3_RR4.opus
</region>

<region>
hivel=127
key=D3
lovel=0
offset=5273
sample=Precisionbass_staccato_MP_D3_RR4.opus
</region>

<region>
hivel=127
key=E3
lovel=0
offset=123
sample=Precisionbass_staccato_MP_E3_RR4.opus
</region>

<region>
hivel=127
key=F#3
lovel=0
offset=1874
sample=Precisionbass_staccato_MP_F#3_RR4.opus
</region>

<region>
hivel=127
key=F3
lovel=0
offset=494
sample=Precisionbass_staccato_MP_F3_RR4.opus
</region>

<region>
hivel=127
key=G3
lovel=0
offset=452
sample=Precisionbass_staccato_MP_G3_RR4.opus
</region>

<region>
hivel=127
key=A#1
lovel=0
offset=5793
sample=Precisionbass_staccato_MP_A#1_RR4.opus
</region>

<region>
hivel=127
key=A#2
lovel=0
offset=2424
sample=Precisionbass_staccato_MP_A#2_RR4.opus
</region>

<region>
hivel=127
key=A2
lovel=0
offset=7254
sample=Precisionbass_staccato_MP_A2_RR4.opus
</region>

<region>
hivel=127
key=B1
lovel=0
offset=1254
sample=Precisionbass_staccato_MP_B1_RR4.opus
</region>

<region>
hivel=127
key=B2
lovel=0
offset=8462
sample=Precisionbass_staccato_MP_B2_RR4.opus
</region>

<region>
hivel=127
key=C#2
lovel=0
offset=1677
sample=Precisionbass_staccato_MP_C#2_RR4.opus
</region>

<region>
hivel=127
key=C2
lovel=0
offset=1470
sample=Precisionbass_staccato_MP_C2_RR4.opus
</region>

<region>
hivel=127
key=C3
lovel=0
offset=7699
sample=Precisionbass_staccato_MP_C3_RR4.opus
</region>

<region>
hivel=127
key=D#2
lovel=0
offset=8273
sample=Precisionbass_staccato_MP_D#2_RR4.opus
</region>

<region>
hivel=127
key=D2
lovel=0
offset=628
sample=Precisionbass_staccato_MP_D2_RR4.opus
</region>

<region>
hivel=127
key=E2
lovel=0
offset=4498
sample=Precisionbass_staccato_MP_E2_RR4.opus
</region>

<region>
hivel=127
key=F#2
lovel=0
offset=7372
sample=Precisionbass_staccato_MP_F#2_RR4.opus
</region>

<region>
hivel=127
key=F2
lovel=0
offset=1301
sample=Precisionbass_staccato_MP_F2_RR4.opus
</region>

<region>
hivel=127
key=G#2
lovel=0
offset=7430
sample=Precisionbass_staccato_MP_G#2_RR4.opus
</region>

<region>
hivel=127
key=G2
lovel=0
offset=6573
sample=Precisionbass_staccato_MP_G2_RR4.opus
</region>

<region>
hivel=127
key=A1
lovel=0
sample=Precisionbass_staccato_MP_A1_RR4.opus
</region>

<region>
hikey=E1
hivel=127
lokey=D1
lovel=0
offset=6778
pitch_keycenter=E1
sample=Precisionbass_staccato_MP_E1_RR4.opus
</region>

<region>
hivel=127
key=F#1
lovel=0
offset=1671
sample=Precisionbass_staccato_MP_F#1_RR4.opus
</region>

<region>
hivel=127
key=F1
lovel=0
offset=1338
sample=Precisionbass_staccato_MP_F1_RR4.opus
</region>

<region>
hivel=127
key=G#1
lovel=0
offset=1263
sample=Precisionbass_staccato_MP_G#1_RR4.opus
</region>

<region>
hivel=127
key=G1
lovel=0
offset=2214
sample=Precisionbass_staccato_MP_G1_RR4.opus
</region>
</group>